<svg width="36" height="36" viewBox="0 0 36 36" fill="none" xmlns="http://www.w3.org/2000/svg">
<path d="M11.8101 7.875H23.6274C23.9635 7.875 24.1875 8.11324 24.1875 8.47059V12.3419C24.1875 12.6993 23.9635 12.9375 23.6274 12.9375H11.8101C11.474 12.9375 11.25 12.6993 11.25 12.3419V8.47059C11.25 8.11324 11.53 7.875 11.8101 7.875Z" fill="#FFB800"/>
<path d="M24.8126 4.5H10.6792C9.10886 4.5 7.875 5.7375 7.875 7.3125V28.6875C7.875 30.2625 9.10886 31.5 10.6792 31.5H24.7565C26.3269 31.5 27.5607 30.2625 27.5607 28.6875V7.3125C27.6168 5.7375 26.3269 4.5 24.8126 4.5ZM26.4951 28.6875C26.4951 29.6437 25.766 30.375 24.8126 30.375H10.6792C9.7258 30.375 8.99669 29.6437 8.99669 28.6875V7.3125C8.99669 6.35625 9.7258 5.625 10.6792 5.625H24.7565C25.7099 5.625 26.439 6.35625 26.439 7.3125V28.6875H26.4951Z" fill="#2E293B"/>
<path d="M24.1518 7.3125H11.8482C11.2098 7.3125 10.6875 7.81875 10.6875 8.4375V12.0938C10.6875 12.7125 11.2098 13.2188 11.8482 13.2188H24.0938C24.7321 13.2188 25.2545 12.7125 25.2545 12.0938V8.4375C25.3125 7.81875 24.7902 7.3125 24.1518 7.3125ZM24.1518 12.0938H11.8482V8.4375H24.0938V12.0938H24.1518ZM15.9688 22.6687H11.8482C11.2098 22.6687 10.6875 23.175 10.6875 23.7937V27.5625C10.6875 28.1812 11.2098 28.6875 11.8482 28.6875H15.9688C16.6071 28.6875 17.1295 28.1812 17.1295 27.5625V23.7937C17.1295 23.175 16.6071 22.6687 15.9688 22.6687ZM15.9688 27.5625H11.8482V23.7937H15.9688V27.5625ZM24.1518 22.6687H20.0313C19.3929 22.6687 18.8705 23.175 18.8705 23.7937V27.5625C18.8705 28.1812 19.3929 28.6875 20.0313 28.6875H24.1518C24.7902 28.6875 25.3125 28.1812 25.3125 27.5625V23.7937C25.3125 23.175 24.7902 22.6687 24.1518 22.6687ZM24.1518 27.5625H20.0313V23.7937H24.1518V27.5625ZM24.1518 14.9062H20.0313C19.3929 14.9062 18.8705 15.4125 18.8705 16.0312V19.8C18.8705 20.4188 19.3929 20.925 20.0313 20.925H24.1518C24.7902 20.925 25.3125 20.4188 25.3125 19.8V16.0312C25.3125 15.4125 24.7902 14.9062 24.1518 14.9062ZM24.1518 19.8562H20.0313V16.0875H24.1518V19.8562ZM15.9688 14.9062H11.8482C11.2098 14.9062 10.6875 15.4125 10.6875 16.0312V19.8C10.6875 20.4188 11.2098 20.925 11.8482 20.925H15.9688C16.6071 20.925 17.1295 20.4188 17.1295 19.8V16.0312C17.1295 15.4125 16.6071 14.9062 15.9688 14.9062ZM15.9688 19.8562H11.8482V16.0875H15.9688V19.8562Z" fill="#2E293B"/>
</svg>
