<svg width="32" height="32" viewBox="0 0 32 32" fill="none" xmlns="http://www.w3.org/2000/svg">
<path d="M2.18182 28.0058H7.27273V15.6422L0 10.1876V25.824C0 27.0294 0.976363 28.0058 2.18182 28.0058Z" fill="#4285F4"/>
<path d="M24.7273 28.0058H29.8182C31.0237 28.0058 32 27.0294 32 25.824V10.1876L24.7273 15.6422V28.0058Z" fill="#34A853"/>
<path d="M24.7273 6.1877V15.6422L32 10.1877V7.27861C32 4.58224 28.9218 3.04224 26.7637 4.66042L24.7273 6.1877Z" fill="#FBBC04"/>
<path fill-rule="evenodd" clip-rule="evenodd" d="M7.27271 15.6422V6.18762L16 12.7331L24.7272 6.18762V15.6422L16 22.1876L7.27271 15.6422Z" fill="#EA4335"/>
<path d="M0 7.27861V10.1877L7.27273 15.6422V6.1877L5.23636 4.66042C3.07818 3.04224 0 4.58224 0 7.27861Z" fill="#C5221F"/>
</svg>
