<svg width="32" height="32" viewBox="0 0 32 32" fill="none" xmlns="http://www.w3.org/2000/svg">
<path d="M15.9999 7.41343C18.6288 7.41343 20.4022 8.549 21.4133 9.49791L25.3645 5.64006C22.9378 3.38447 19.7799 2 15.9999 2C10.5242 2 5.79524 5.14228 3.49298 9.71569L8.01973 13.2313C9.1553 9.85569 12.2976 7.41343 15.9999 7.41343Z" fill="#EA4335"/>
<path d="M29.4402 16.3112C29.4402 15.1601 29.3469 14.3201 29.1447 13.449H16V18.6446H23.7157C23.5601 19.9358 22.7201 21.8802 20.8534 23.1869L25.2713 26.6092C27.9158 24.1669 29.4402 20.5735 29.4402 16.3112Z" fill="#4285F4"/>
<path d="M8.03542 18.7687C7.73985 17.8976 7.56874 16.9642 7.56874 15.9998C7.56874 15.0353 7.73986 14.102 8.01986 13.2308L3.49311 9.71521C2.54421 11.613 1.99976 13.7442 1.99976 15.9998C1.99976 18.2554 2.54421 20.3865 3.49311 22.2843L8.03542 18.7687Z" fill="#FBBC05"/>
<path d="M16.0001 30.0007C19.7802 30.0007 22.9536 28.7562 25.2714 26.6095L20.8535 23.1873C19.6713 24.0117 18.0846 24.5873 16.0001 24.5873C12.2978 24.5873 9.15555 22.145 8.03553 18.7694L3.50879 22.285C5.81105 26.8584 10.5245 30.0007 16.0001 30.0007Z" fill="#34A853"/>
</svg>
