<svg width="36" height="36" viewBox="0 0 36 36" fill="none" xmlns="http://www.w3.org/2000/svg">
<rect x="3.9375" y="6.1875" width="28.5" height="6" rx="1" fill="#3D50DF"/>
<path opacity="0.3" fill-rule="evenodd" clip-rule="evenodd" d="M3.9375 16.1875C3.9375 15.6352 4.38522 15.1875 4.9375 15.1875H10.4375C10.9898 15.1875 11.4375 15.6352 11.4375 16.1875V29.1875C11.4375 29.7398 10.9898 30.1875 10.4375 30.1875H4.9375C4.38522 30.1875 3.9375 29.7398 3.9375 29.1875V16.1875ZM14.4375 16.1875C14.4375 15.6352 14.8852 15.1875 15.4375 15.1875H20.9375C21.4898 15.1875 21.9375 15.6352 21.9375 16.1875V29.1875C21.9375 29.7398 21.4898 30.1875 20.9375 30.1875H15.4375C14.8852 30.1875 14.4375 29.7398 14.4375 29.1875V16.1875ZM25.9375 15.1875C25.3852 15.1875 24.9375 15.6352 24.9375 16.1875V29.1875C24.9375 29.7398 25.3852 30.1875 25.9375 30.1875H31.4375C31.9898 30.1875 32.4375 29.7398 32.4375 29.1875V16.1875C32.4375 15.6352 31.9898 15.1875 31.4375 15.1875H25.9375Z" fill="#0015FF"/>
</svg>
