<svg width="36" height="36" viewBox="0 0 36 36" fill="none" xmlns="http://www.w3.org/2000/svg">
<path d="M22.95 11.8127H13.05C12.3665 11.8127 11.8125 12.3667 11.8125 13.0502V22.9502C11.8125 23.6336 12.3665 24.1877 13.05 24.1877H22.95C23.6335 24.1877 24.1875 23.6336 24.1875 22.9502V13.0502C24.1875 12.3667 23.6335 11.8127 22.95 11.8127Z" fill="#BBDEFB"/>
<path d="M6.8625 14.2875C6.5343 14.2875 6.21953 14.1571 5.98746 13.9251C5.75538 13.693 5.625 13.3782 5.625 13.05V6.8625C5.625 6.5343 5.75538 6.21953 5.98746 5.98746C6.21953 5.75538 6.5343 5.625 6.8625 5.625H13.05C13.3782 5.625 13.693 5.75538 13.9251 5.98746C14.1571 6.21953 14.2875 6.5343 14.2875 6.8625C14.2875 7.19071 14.1571 7.50547 13.9251 7.73755C13.693 7.96963 13.3782 8.1 13.05 8.1H8.1V13.05C8.1 13.3782 7.96963 13.693 7.73755 13.9251C7.50547 14.1571 7.19071 14.2875 6.8625 14.2875ZM13.05 30.375H6.8625C6.5343 30.375 6.21953 30.2447 5.98746 30.0126C5.75538 29.7805 5.625 29.4657 5.625 29.1375V22.95C5.625 22.6218 5.75538 22.3071 5.98746 22.075C6.21953 21.8429 6.5343 21.7125 6.8625 21.7125C7.19071 21.7125 7.50547 21.8429 7.73755 22.075C7.96963 22.3071 8.1 22.6218 8.1 22.95V27.9H13.05C13.3782 27.9 13.693 28.0304 13.9251 28.2625C14.1571 28.4946 14.2875 28.8093 14.2875 29.1375C14.2875 29.4657 14.1571 29.7805 13.9251 30.0126C13.693 30.2447 13.3782 30.375 13.05 30.375ZM29.1375 30.375H22.95C22.6218 30.375 22.3071 30.2447 22.075 30.0126C21.8429 29.7805 21.7125 29.4657 21.7125 29.1375C21.7125 28.8093 21.8429 28.4946 22.075 28.2625C22.3071 28.0304 22.6218 27.9 22.95 27.9H27.9V22.95C27.9 22.6218 28.0304 22.3071 28.2625 22.075C28.4946 21.8429 28.8093 21.7125 29.1375 21.7125C29.4657 21.7125 29.7805 21.8429 30.0126 22.075C30.2447 22.3071 30.375 22.6218 30.375 22.95V29.1375C30.375 29.4657 30.2447 29.7805 30.0126 30.0126C29.7805 30.2447 29.4657 30.375 29.1375 30.375ZM29.1375 14.2875C28.8093 14.2875 28.4946 14.1571 28.2625 13.9251C28.0304 13.693 27.9 13.3782 27.9 13.05V8.1H22.95C22.6218 8.1 22.3071 7.96963 22.075 7.73755C21.8429 7.50547 21.7125 7.19071 21.7125 6.8625C21.7125 6.5343 21.8429 6.21953 22.075 5.98746C22.3071 5.75538 22.6218 5.625 22.95 5.625H29.1375C29.4657 5.625 29.7805 5.75538 30.0126 5.98746C30.2447 6.21953 30.375 6.5343 30.375 6.8625V13.05C30.375 13.3782 30.2447 13.693 30.0126 13.9251C29.7805 14.1571 29.4657 14.2875 29.1375 14.2875ZM25.425 19.2375H10.575C10.2468 19.2375 9.93204 19.1071 9.69996 18.8751C9.46789 18.643 9.33751 18.3282 9.33751 18C9.33751 17.6718 9.46789 17.3571 9.69996 17.125C9.93204 16.8929 10.2468 16.7625 10.575 16.7625H25.425C25.7532 16.7625 26.068 16.8929 26.3001 17.125C26.5322 17.3571 26.6625 17.6718 26.6625 18C26.6625 18.3282 26.5322 18.643 26.3001 18.8751C26.068 19.1071 25.7532 19.2375 25.425 19.2375Z" fill="#1E88E5"/>
</svg>
