<svg width="32" height="32" viewBox="0 0 32 32" fill="none" xmlns="http://www.w3.org/2000/svg">
<path fill-rule="evenodd" clip-rule="evenodd" d="M21.2488 2C21.4992 3.70069 20.8069 5.36681 19.8937 6.54561C18.9167 7.81001 17.2328 8.78795 15.6012 8.73691C15.3033 7.10866 16.066 5.43102 16.9938 4.30326C18.0118 3.05861 19.7563 2.10372 21.2488 2ZM26.1499 25.9384C26.9911 24.6493 27.3053 23.999 27.9583 22.5436C23.2091 20.7375 22.4481 13.9858 27.1482 11.3944C25.7146 9.59661 23.7001 8.55446 21.7984 8.55446C20.4282 8.55446 19.4894 8.91203 18.636 9.2371C17.9247 9.50799 17.2728 9.75631 16.4798 9.75631C15.6229 9.75631 14.8641 9.48423 14.0695 9.19934C13.1964 8.88628 12.2801 8.55776 11.1431 8.55776C9.00914 8.55776 6.73767 9.86168 5.29755 12.0908C3.27319 15.2305 3.61849 21.1327 6.90132 26.1607C8.0747 27.9601 9.64247 29.9819 11.693 30C12.5439 30.0084 13.11 29.7545 13.7227 29.4797C14.424 29.1651 15.1862 28.8233 16.506 28.8162C17.8335 28.8083 18.5837 29.1543 19.2757 29.4735C19.8726 29.7488 20.4263 30.0042 21.2699 29.995C23.322 29.9786 24.9765 27.7379 26.1499 25.9384Z" fill="#0B0B0A"/>
</svg>
