<svg width="88" height="88" viewBox="0 0 88 88" fill="none" xmlns="http://www.w3.org/2000/svg">
<path d="M7.84473 21.3863H36.5934V27.9514H20.3239C20.4163 28.2083 20.447 28.3866 20.5364 28.5277C22.4172 31.4996 24.3043 34.4677 26.1921 37.4351C26.4628 37.8607 26.8068 38.2522 27.0055 38.708C27.2536 39.2777 27.6358 39.386 28.206 39.3852C41.3238 39.3714 54.4418 39.3744 67.5596 39.3744H68.4644C60.2869 52.2818 52.1791 65.0796 43.9991 77.991C39.8465 71.5015 35.7712 65.1328 31.6392 58.6753C34.3002 58.6753 36.8277 58.6652 39.3548 58.6946C39.5527 58.6969 39.8089 58.9347 39.9339 59.1295C41.2221 61.1357 42.4885 63.1561 43.7631 65.171C43.8141 65.2516 43.8871 65.3182 44.0232 65.4764C48.1126 59.0213 52.1675 52.6205 56.2825 46.1253C56.0093 46.0894 55.8598 46.0519 55.7109 46.0524C51.8155 46.0665 38.7823 46.057 37.2121 46.0545C32.9076 46.0474 28.6028 46.0419 24.2983 46.0632C23.7709 46.066 23.4395 45.9126 23.1595 45.4686C21.2849 42.4952 19.3966 39.5304 17.5037 36.5685C15.3823 33.2486 13.2524 29.9339 11.1237 26.6185C10.1085 25.0375 9.08597 23.461 8.07148 21.8793C7.98761 21.7487 7.9394 21.5953 7.84473 21.3863Z" fill="white"/>
<path d="M82.888 10.3126C83.4357 10.3121 88 10.3126 88 10.3126C87.6349 11.0429 87.6349 11.0429 87.6349 11.0429C86.7607 12.4079 85.862 13.8256 84.9628 15.2288C84.8089 15.4683 84.6082 15.6886 84.5048 15.9477C84.1261 16.8989 83.4461 17.1739 82.4565 17.0729C81.5683 16.9825 80.6615 17.089 79.7671 17.035C79.4695 17.0169 78.4565 17.0112 78.4565 17.0112L76.0393 17.0222H47.3763V36.5232H40.365V17.0538H39.5391C27.9943 17.0538 16.4495 17.0503 4.90469 17.0661C4.39343 17.0666 4.10767 16.9167 3.83546 16.479C2.62963 14.5405 1.37985 12.6295 0.147649 10.7073C0.106215 10.6425 0.0853776 10.5644 0 10.3643C0.56751 10.3643 5.16308 10.3766 6.26446 10.3768C17.748 10.3783 29.2318 10.3781 40.7153 10.3768C41.1231 10.3768 70.9351 10.3221 82.888 10.3126Z" fill="white"/>
<path d="M51.2827 21.3924H80.2147C79.8676 21.9195 79.5588 22.3948 79.2441 22.8662C78.1912 24.4434 77.121 26.0096 76.0947 27.6041C75.8793 27.9388 75.6472 27.9981 75.3007 27.9963C71.2631 27.9778 67.2255 27.9609 63.1881 27.9607C59.4569 27.9604 55.7256 27.981 51.9944 27.9921C51.7726 27.9928 51.5506 27.9921 51.2827 27.9921V21.3924Z" fill="white"/>
<path d="M43.9971 57.2931C43.5841 56.655 43.2463 56.1407 42.9164 55.6212C42.2132 54.5146 41.5292 53.3956 40.807 52.3015C40.4841 51.8124 40.2799 51.3254 40.3327 50.723C40.3771 50.2178 40.3573 49.705 40.3374 49.1965C40.3229 48.8191 40.4864 48.6978 40.8462 48.6991C42.8626 48.7081 44.879 48.7109 46.8955 48.6966C47.2515 48.6941 47.358 48.8266 47.3532 49.1591C47.3409 50.0144 47.3979 50.874 47.3269 51.7232C47.2955 52.0971 47.0557 52.4725 46.8482 52.809C46.0115 54.165 45.1512 55.5064 44.2985 56.8529C44.2241 56.9702 44.1418 57.0824 43.9971 57.2931Z" fill="white"/>
</svg>
